inDegrees=yes
name=ik_S53_A04_T01
DataType=double
version=3
OpenSimVersion=4.3-2021-08-27-4bc7ad9
endheader
time	pelvis_tilt	pelvis_list	pelvis_rotation	pelvis_tx	pelvis_ty	pelvis_tz	hip_flexion_r	hip_adduction_r	hip_rotation_r	knee_angle_r	knee_angle_r_beta	ankle_angle_r	subtalar_angle_r	mtp_angle_r	hip_flexion_l	hip_adduction_l	hip_rotation_l	knee_angle_l	knee_angle_l_beta	ankle_angle_l	subtalar_angle_l	mtp_angle_l	lumbar_extension	lumbar_bending	lumbar_rotation	arm_flex_r	arm_add_r	arm_rot_r	elbow_flex_r	pro_sup_r	wrist_flex_r	wrist_dev_r	arm_flex_l	arm_add_l	arm_rot_l	elbow_flex_l	pro_sup_l	wrist_flex_l	wrist_dev_l
7.166666666666647	-11.35765901146864	-10.4776822087766	35.14108915394804	0	0.9399999999999999	0	72.83630331767809	-15.40522573527513	-9.223941183624461	79.68877858472399	1.390831563196181	0	0	0	75.65053901469537	-6.07460468457021	-5.836432517982272	78.74639824244443	1.374383923417331	0	0	0	0	0	0	14.36431384692827	-14.36431384692827	2.504183588949761	52.69856494517067	87.49581655647677	0	0	14.36431384692827	-14.36431384692827	2.504183588949761	52.69856494517067	87.4958165560122	0	0
7.183333333333313	-12.9705528803076	-11.35335432420983	35.11209362819855	0	0.9399999999999999	0	73.47111487570811	-14.54737007571461	-9.754281257422932	78.75152047416961	1.374473323225986	0	0	0	76.58137641816253	-5.640881929508508	-6.07480729451623	77.88082883398175	1.359276887335118	0	0	0	0	0	0	14.36723856911425	-14.36723856911426	2.504637631549349	52.70518885252319	87.49536251390293	0	0	14.36723856911425	-14.36723856911426	2.504637631549349	52.70518885252319	87.49536251343837	0	0
7.19999999999998	-14.05899841817129	-11.8383248588451	34.94307377416813	0	0.9399999999999999	0	73.69234505396146	-14.130460761889	-9.699753123672561	78.05670200920854	1.362346453308762	0	0	0	77.66199001275497	-5.764526771358859	-6.188376722770246	78.03153558779064	1.361907216394076	0	0	0	0	0	0	14.37435470902752	-14.37435470902752	2.505746577148511	52.72139095208486	87.49425356836662	0	0	14.37435470902752	-14.37435470902752	2.505746577148511	52.72139095208486	87.49425356790221	0	0
7.216666666666646	-14.61672095034749	-11.92834675717705	34.90944679736528	0	0.9399999999999999	0	73.19792703577716	-13.86409928469558	-9.70608990537804	77.01095619297305	1.344094745676497	0	0	0	77.16588377240106	-5.747968660179904	-6.429478483463522	77.36964252240882	1.350355003107045	0	0	0	0	0	0	14.38078335251068	-14.38078335251068	2.506747790085549	52.73601400101406	87.49325235548623	0	0	14.38078335251068	-14.38078335251068	2.506747790085549	52.73601400101406	87.49325235502198	0	0
7.233333333333313	-15.27301312124361	-12.14219966831909	34.92543417813541	0	0.9399999999999999	0	72.70494026228361	-13.75844560771112	-9.786789380225322	76.18399594583096	1.329661566580762	0	0	0	76.75181767843405	-5.559101161361421	-6.690542146010023	76.47007811879627	1.334654642430266	0	0	0	0	0	0	14.38839942726795	-14.38839942726795	2.507933801695648	52.75333340726154	87.49206634394328	0	0	14.38839942726795	-14.38839942726795	2.507933801695648	52.75333340726154	87.49206634347918	0	0
7.24999999999998	-15.89794334295963	-12.540359533672	34.89609090425122	0	0.9399999999999999	0	73.43176987924203	-13.85764959722462	-9.788385161339392	76.18382169118586	1.329658525263468	0	0	0	76.33225114182051	-5.498686806438313	-6.907744119782873	75.59583398193114	1.319396203775714	0	0	0	0	0	0	14.39486269534859	-14.39486269534859	2.508938411971339	52.76799113655573	87.49106173372446	0	0	14.39486269534859	-14.39486269534859	2.508938411971339	52.76799113655573	87.49106173326059	0	0
7.266666666666646	-15.91923470293929	-12.54165438015258	34.8679455515686	0	0.9399999999999999	0	72.25483977731027	-13.67188528508995	-10.1844888117334	75.33825822254593	1.314900658701117	0	0	0	75.19751601348453	-5.603067954213836	-7.168124339826958	74.70076994366222	1.303774389291725	0	0	0	0	0	0	14.39929805348052	-14.39929805348052	2.509627444482068	52.77804140823709	87.49037270125277	0	0	14.39929805348052	-14.39929805348052	2.509627444482068	52.77804140823709	87.490372700789	0	0
7.283333333333313	-16.23606407642048	-12.66793259318958	34.92786216268939	0	0.9399999999999999	0	71.34983049029515	-13.62661558979873	-10.55838369141231	74.11799262461464	1.293603006268399	0	0	0	74.35451909117484	-5.543079910955079	-7.483010462939904	73.68281526961478	1.286007728593531	0	0	0	0	0	0	14.4050266252981	-14.40502662529811	2.510517459217416	52.79102267575095	87.48948268656777	0	0	14.4050266252981	-14.40502662529811	2.510517459217416	52.79102267575095	87.48948268610424	0	0
7.299999999999979	-16.32135486894418	-12.66368835170703	34.88099197630001	0	0.9399999999999999	0	70.04439975784622	-13.67116775104312	-10.95965670070976	73.34568207435855	1.280123644318541	0	0	0	73.15950737864908	-5.702417302436362	-7.944533824449093	72.74933044736758	1.269715344927924	0	0	0	0	0	0	14.40968137751432	-14.40968137751433	2.511240458893239	52.80156607895695	87.48875968693288	0	0	14.40968137751432	-14.40968137751433	2.511240458893239	52.80156607895695	87.48875968646944	0	0
7.316666666666646	-16.62568954174994	-12.74612014231272	34.75278264044796	0	0.9399999999999999	0	68.93653422218817	-13.56136973648844	-11.212544752729	72.19390236462124	1.26002129612596	0	0	0	72.16799034759418	-5.907305331005025	-8.368161014417543	71.65866440753274	1.250679631493118	0	0	0	0	0	0	14.41686987960875	-14.41686987960875	2.512358280940322	52.81787309424287	87.48764186494903	0	0	14.41686987960875	-14.41686987960875	2.512358280940322	52.81787309424287	87.48764186448581	0	0
7.333333333333313	-16.87668647098904	-12.77387577117882	34.58578693178793	0	0.9399999999999999	0	67.8170320317401	-13.44900685175044	-11.43550477257778	71.05624599384223	1.240165446699577	0	0	0	71.05402681834626	-6.103230703898175	-8.843979804331665	70.43728038075319	1.229362458794548	0	0	0	0	0	0	14.42413815072227	-14.42413815072228	2.513487723380015	52.83434316207718	87.4865124225733	0	0	14.42413815072227	-14.42413815072228	2.513487723380015	52.83434316207718	87.48651242211027	0	0
7.349999999999979	-16.76701514616392	-12.57408615348468	34.49780975590598	0	0.9399999999999999	0	67.63526119873728	-13.4385791881928	-11.35599799882321	71.18116976923697	1.242345777894238	0	0	0	70.85971943804608	-6.184013712314483	-8.96849067813935	70.46616431269184	1.2298665785078	0	0	0	0	0	0	14.42678887349848	-14.42678887349848	2.513896148036667	52.84027798474525	87.48610399793975	0	0	14.42678887349848	-14.42678887349848	2.513896148036667	52.84027798474525	87.48610399747675	0	0
7.366666666666646	-16.58435635675418	-12.35161890756733	34.47947964435026	0	0.9399999999999999	0	64.61187557773412	-13.20483481738238	-12.18185633155767	68.62739047187002	1.197773920785917	0	0	0	70.52623092507339	-6.322682501082318	-9.096528664980273	70.50568836469917	1.230556403349057	0	0	0	0	0	0	14.4400278589804	-14.4400278589804	2.515949366411196	52.87018494829346	87.48405077968134	0	0	14.4400278589804	-14.4400278589804	2.515949366411196	52.87018494829346	87.48405077921876	0	0
7.383333333333312	-16.38688923197824	-12.08913395761139	34.44041693137019	0	0.9399999999999999	0	62.9472676848552	-13.1261446019407	-12.62109407433718	67.38637384344769	1.176114094547948	0	0	0	68.87601756526031	-6.513762742812491	-9.584363600157218	69.30960302620969	1.209680776057585	0	0	0	0	0	0	14.44398880021278	-14.44398880021279	2.516561204187378	52.87908271254351	87.48343894193977	0	0	14.44398880021278	-14.44398880021279	2.516561204187378	52.87908271254351	87.48343894147733	0	0
7.399999999999979	-16.22285808732522	-11.9864241247362	34.49028684942153	0	0.9399999999999999	0	62.72588194193445	-13.13526061821379	-12.64191399272109	67.38219130375566	1.176041095459227	0	0	0	68.66726582019385	-6.520898278845491	-9.588453730335242	69.29832035952799	1.209483856375584	0	0	0	0	0	0	14.51431642899443	-14.51431642899443	2.527273247016419	53.0323768086504	87.47272689971444	0	0	14.51431642899443	-14.51431642899443	2.527273247016419	53.0323768086504	87.472726899254	0	0
7.416666666666646	-15.96332367918724	-11.75236766353366	34.50177864877028	0	0.9399999999999999	0	62.40352099098887	-13.18595770774102	-12.68563749278442	67.42803026151716	1.176841136197848	0	0	0	65.70048041806105	-6.670191774512506	-10.30114346320294	66.75176365736831	1.165038057334169	0	0	0	0	0	0	14.52586288450848	-14.52586288450848	2.529059417635147	53.05833632864119	87.4709407291967	0	0	14.52586288450848	-14.52586288450848	2.529059417635147	53.05833632864119	87.47094072873668	0	0
7.433333333333312	-15.68203898806355	-11.49490094745283	34.50590408728392	0	0.9399999999999999	0	60.63693233327959	-13.10509646145825	-13.17375317156201	66.08833812549824	1.153459097461242	0	0	0	64.01267260882092	-6.805642989566242	-10.68568999300735	65.49451186952454	1.14309487410971	0	0	0	0	0	0	14.52966778730842	-14.52966778730842	2.529644595343898	53.06682171691001	87.470355551521	0	0	14.52966778730842	-14.52966778730842	2.529644595343898	53.06682171691001	87.4703555510611	0	0
7.449999999999979	-15.66069344616044	-11.55786495844083	34.53793375031749	0	0.9399999999999999	0	60.63197844364236	-13.14221469359936	-13.32736512228901	66.05303359409864	1.152842917147445	0	0	0	62.68464445989511	-6.941974393284782	-10.91752608364563	64.13745526787835	1.119409768275059	0	0	0	0	0	0	14.53391206710894	-14.53391206710895	2.530298835359865	53.0763166369896	87.46970131154201	0	0	14.53391206710894	-14.53391206710895	2.530298835359865	53.0763166369896	87.46970131108222	0	0
7.466666666666645	-15.28330914776076	-11.22043531828842	34.61356881568261	0	0.9399999999999999	0	57.26160735171896	-12.93863011102018	-14.03748098162396	63.27611243251834	1.104376499809563	0	0	0	60.81575293041168	-7.04191672940437	-11.24358852924619	62.72444998507704	1.094748173742102	0	0	0	0	0	0	14.54488602586017	-14.54488602586018	2.531995357677653	53.10096010440829	87.4680047893202	0	0	14.54488602586017	-14.54488602586018	2.531995357677653	53.10096010440829	87.46800478886071	0	0
7.483333333333312	-14.83156887452099	-11.01873356666194	34.68610481828639	0	0.9399999999999999	0	56.78204032708288	-12.98113648035885	-14.16424546558407	63.25248228900826	1.103964076002593	0	0	0	58.98453556230768	-7.215665129128765	-11.40925093592505	61.27511628203573	1.06945252866391	0	0	0	0	0	0	14.55390368856549	-14.55390368856549	2.533381942951223	53.12105435647809	87.46661820412503	0	0	14.55390368856549	-14.55390368856549	2.533381942951223	53.12105435647809	87.46661820366576	0	0
